<?xml version="1.0" encoding="UTF-8"?>
<svg width="104.55mm" height="103.51mm" version="1.1" viewBox="0 0 104.55 103.51" xmlns="http://www.w3.org/2000/svg">
   <g transform="translate(-51.423 -78.335)">
      <g stroke-width="2.7494">
         <path d="m128.09 90.651a12.599 12.316 0 0 1-12.599 12.316 12.599 12.316 0 0 1-12.599-12.316 12.599 12.316 0 0 1 12.599-12.316 12.599 12.316 0 0 1 12.599 12.316z" fill="#f69489"/>
         <path d="m155.97 125.24a12.599 12.316 0 0 1-12.599 12.316 12.599 12.316 0 0 1-12.599-12.316 12.599 12.316 0 0 1 12.599-12.316 12.599 12.316 0 0 1 12.599 12.316z" fill="#ffd086"/>
         <path d="m118.71 169.52a12.599 12.316 0 0 1-12.599 12.316 12.599 12.316 0 0 1-12.599-12.316 12.599 12.316 0 0 1 12.599-12.316 12.599 12.316 0 0 1 12.599 12.316z" fill="#91cbd7"/>
         <path d="m118.98 127.86a12.599 12.316 0 0 1-12.599 12.316 12.599 12.316 0 0 1-12.599-12.316 12.599 12.316 0 0 1 12.599-12.316 12.599 12.316 0 0 1 12.599 12.316z" fill="#ed6571"/>
         <path d="m76.622 97.202a12.599 12.316 0 0 1-12.599 12.316 12.599 12.316 0 0 1-12.599-12.316 12.599 12.316 0 0 1 12.599-12.316 12.599 12.316 0 0 1 12.599 12.316z" fill="#91cbd7"/>
         <path d="m77.426 144.89a12.599 12.316 0 0 1-12.599 12.316 12.599 12.316 0 0 1-12.599-12.316 12.599 12.316 0 0 1 12.599-12.316 12.599 12.316 0 0 1 12.599 12.316z" fill="#4e9bb9"/>
         <path d="m76.516 95.611 26.482-3.3707" fill-opacity="0" stroke="#664670" style="paint-order:normal"/>
         <path d="m135.37 134.75-21.255 25.261" fill-opacity="0" stroke="#664670" style="paint-order:normal"/>
         <path d="m106.19 157.21 0.1096-17.034" fill-opacity="0" stroke="#664670" style="paint-order:normal"/>
         <path d="m118.94 126.97 11.861-0.84017" fill-opacity="0" stroke="#664670" style="paint-order:normal"/>
         <path d="m96.252 120.53-22.104-16" fill-opacity="0" stroke="#664670" style="paint-order:normal"/>
         <path d="m73.322 135.8 33.675-36.052" fill-opacity="0" stroke="#664670" style="paint-order:normal"/>
         <path d="m123.29 100.32 12.285 15.242" fill-opacity="0" stroke="#664670" style="paint-order:normal"/>
         <path d="m99.88 158.82-29.628-50.913" fill-opacity="0" stroke="#664670" style="paint-order:normal"/>
      </g>
   </g>
</svg>